<svg width="55" height="56" viewBox="0 0 55 56" fill="none" xmlns="http://www.w3.org/2000/svg">
<path d="M0 0H53.1735L54.9401 56L44.2524 54.0616H0V0Z" fill="#D3FEB6"/>
<path d="M36.2805 30.895L34.5583 41.5198H38.061L36.2805 30.895ZM39.5496 49.6927L39.1994 47.3867H33.42L33.0697 49.6927L24.1963 49.7219L28.6622 28.6183H43.928L48.4231 49.6927H39.5496Z" fill="#1E1E1E"/>
<path d="M6.05469 37.842L19.7151 35.1566H6.34658V28.6183H23.5096V40.4982L10.2871 43.1835H23.8015V49.7219H6.05469V37.842Z" fill="#1E1E1E"/>
<path d="M29.415 13.6401L43.0754 10.9547H29.7069V4.4164H46.87V16.2963L33.6474 18.9817H47.1619V25.52H29.415V13.6401Z" fill="#1E1E1E"/>
<path d="M16.8547 6.69314L15.1326 17.3179H18.6352L16.8547 6.69314ZM20.1239 25.4908L19.7736 23.1849H13.9942L13.6439 25.4908L4.77051 25.52L9.23641 4.4164H24.5022L28.9973 25.4908H20.1239Z" fill="#1E1E1E"/>
</svg>
