<svg width="1440" height="741" viewBox="0 0 1440 741" fill="none" xmlns="http://www.w3.org/2000/svg">
<path d="M1744.62 -35.5749L1745.57 -12.7249L1744.57 -12.6837L1745.51 10.1663L1746.51 10.1251L1747.45 32.9751L1746.45 33.0163L1747.39 55.8662L1748.39 55.825L1749.34 78.675L1748.34 78.7162L1749.28 101.566L1750.28 101.525L1751.22 124.375L1750.22 124.416L1751.16 147.266L1752.16 147.225L1753.11 170.075L1752.11 170.116L1753.05 192.966L1754.05 192.925L1754.99 215.775L1753.99 215.816L1754.93 238.666L1755.93 238.625L1756.87 261.475L1755.88 261.516L1756.82 284.366L1757.82 284.325L1758.76 307.175L1757.76 307.216L1758.7 330.066L1759.7 330.025L1760.64 352.875L1759.65 352.916L1760.59 375.766L1761.59 375.725L1762.53 398.575L1761.53 398.616L1761.95 408.792L1748.93 406.423L1748.75 407.407L1720.24 402.22L1720.42 401.236L1691.91 396.05L1691.73 397.034L1663.23 391.847L1663.41 390.864L1649.15 388.27L1649.07 388.254H1648.98H1637.09V389.254H1613.33V388.254H1589.56V389.254H1565.79V388.254H1542.03V389.254H1518.26V388.254H1494.49V389.254H1470.73V388.254H1446.96V389.254H1423.2V388.254H1399.43V389.254H1375.66V388.254H1351.9V389.254H1328.13V388.254H1304.36V389.254H1280.6V388.254H1256.83V389.254H1233.07V388.254H1209.3V389.254H1185.53V388.254H1161.77V389.254H1138V388.254H1114.23V389.254H1090.47V388.254H1066.7V389.254H1042.94V388.254H1019.17V389.254H995.403V388.254H971.637V389.254H947.871V388.254H924.105V389.254H900.338V388.254H876.572V389.254H852.806V388.254H829.04V389.254H805.273V388.254H781.507V389.254H757.741V388.254H733.975V389.254H710.208V388.254H686.442V389.254H662.676V388.254H638.91V389.254H615.143V388.254H591.377V389.254H567.611V388.254H543.845V389.254H520.078V388.254H496.312V389.254H472.546V388.254H448.779V389.254H425.013V388.254H401.247V389.254H377.481V388.254H353.714V389.254H329.948V388.254H306.182V389.254H282.416V388.254H258.649V389.254H234.883V388.254H224V377.136H223V352.9H224V328.663H223V304.427H224V280.191H223V255.954H224V231.718H223V207.482H224V183.245H223V159.009H224V134.773H223V110.536H224V86.2999H223V62.0636H224V37.8272H223V13.5909H224V-10.6455H223V-34.8818H224V-46H234.883V-47H258.651V-46H282.419V-47H306.188V-46H329.956V-47H353.724V-46H377.492V-47H401.26V-46H425.028V-47H448.796V-46H472.564V-47H496.332V-46H520.1V-47H543.868V-46H567.636V-47H591.404V-46H615.172V-47H638.94V-46H662.708V-47H686.477V-46H710.245V-47H734.013V-46H757.781V-47H781.549V-46H805.317V-47H829.085V-46H852.853V-47H876.621V-46H900.389V-47H924.157V-46H947.925V-47H971.693V-46H995.461V-47H1019.23V-46H1043V-47H1066.76V-46H1090.53V-47H1114.3V-46H1138.07V-47H1161.84V-46H1185.6V-47H1209.37V-46H1233.14V-47H1256.91V-46H1280.68V-47H1304.44V-46H1328.21V-47H1351.98V-46H1375.75V-47H1399.52V-46H1423.29V-47H1447.05V-46H1470.82V-47H1494.59V-46H1518.36V-47H1542.13V-46H1565.89V-47H1589.66V-46H1613.43V-47H1637.2V-46H1660.97V-47H1684.73V-46H1708.5V-47H1732.27V-46H1743.19L1743.63 -35.5337L1744.62 -35.5749Z" stroke="#122C23" stroke-width="2" stroke-dasharray="24 24"/>
<path d="M1198.62 295.425L1199.57 318.275L1198.57 318.316L1199.51 341.166L1200.51 341.125L1201.45 363.975L1200.45 364.016L1201.39 386.866L1202.39 386.825L1203.34 409.675L1202.34 409.716L1203.28 432.566L1204.28 432.525L1205.22 455.375L1204.22 455.416L1205.16 478.266L1206.16 478.225L1207.11 501.075L1206.11 501.116L1207.05 523.966L1208.05 523.925L1208.99 546.775L1207.99 546.816L1208.93 569.666L1209.93 569.625L1210.87 592.475L1209.88 592.516L1210.82 615.366L1211.82 615.325L1212.76 638.175L1211.76 638.216L1212.7 661.066L1213.7 661.025L1214.64 683.875L1213.65 683.916L1214.59 706.766L1215.59 706.725L1216.53 729.575L1215.53 729.616L1215.95 739.792L1202.93 737.423L1202.75 738.407L1174.24 733.22L1174.42 732.236L1145.91 727.05L1145.73 728.034L1117.23 722.847L1117.41 721.864L1103.15 719.27L1103.07 719.254H1102.98H1091.09V720.254H1067.33V719.254H1043.56V720.254H1019.79V719.254H996.027V720.254H972.26V719.254H948.494V720.254H924.728V719.254H900.962V720.254H877.196V719.254H853.429V720.254H829.663V719.254H805.897V720.254H782.131V719.254H758.364V720.254H734.598V719.254H710.832V720.254H687.066V719.254H663.299V720.254H639.533V719.254H615.767V720.254H592.001V719.254H568.234V720.254H544.468V719.254H520.702V720.254H496.936V719.254H473.169V720.254H449.403V719.254H425.637V720.254H401.871V719.254H378.105V720.254H354.338V719.254H330.572V720.254H306.806V719.254H283.04V720.254H259.273V719.254H235.507V720.254H211.741V719.254H187.975V720.254H164.208V719.254H140.442V720.254H116.676V719.254H92.9096V720.254H69.1433V719.254H45.377V720.254H21.6108V719.254H-2.15546V720.254H-25.9217V719.254H-49.688V720.254H-73.4542V719.254H-97.2205V720.254H-120.987V719.254H-144.753V720.254H-168.519V719.254H-192.286V720.254H-216.052V719.254H-239.818V720.254H-263.584V719.254H-287.351V720.254H-311.117V719.254H-322V708.136H-323V683.9H-322V659.663H-323V635.427H-322V611.191H-323V586.954H-322V562.718H-323V538.482H-322V514.245H-323V490.009H-322V465.773H-323V441.536H-322V417.3H-323V393.064H-322V368.827H-323V344.591H-322V320.355H-323V296.118H-322V285H-311.117V284H-287.349V285H-263.581V284H-239.812V285H-216.044V284H-192.276V285H-168.508V284H-144.74V285H-120.972V284H-97.2041V285H-73.436V284H-49.668V285H-25.8999V284H-2.13187V285H21.6362V284H45.4043V285H69.1724V284H92.9404V285H116.708V284H140.477V285H164.245V284H188.013V285H211.781V284H235.549V285H259.317V284H283.085V285H306.853V284H330.621V285H354.389V284H378.157V285H401.925V284H425.693V285H449.461V284H473.229V285H496.997V284H520.765V285H544.533V284H568.301V285H592.069V284H615.837V285H639.605V284H663.373V285H687.141V284H710.909V285H734.677V284H758.445V285H782.213V284H805.981V285H829.749V284H853.517V285H877.285V284H901.053V285H924.821V284H948.589V285H972.357V284H996.125V285H1019.89V284H1043.66V285H1067.43V284H1091.2V285H1114.97V284H1138.73V285H1162.5V284H1186.27V285H1197.19L1197.63 295.466L1198.62 295.425Z" stroke="#122C23" stroke-width="2" stroke-dasharray="24 24"/>
</svg>
