<svg width="1440" height="353" viewBox="0 0 1440 353" fill="none" xmlns="http://www.w3.org/2000/svg">
<path d="M403.82 8.08114L404.33 24.2437L403.831 24.2595L404.341 40.422L404.841 40.4062L405.351 56.5688L404.851 56.5845L405.362 72.7471L405.861 72.7313L406.372 88.8939L405.872 88.9096L406.382 105.072L406.882 105.056L407.392 121.219L406.893 121.235L407.403 137.397L407.903 137.381L408.413 153.544L407.913 153.56L408.424 169.722L408.924 169.707L409.434 185.869L408.934 185.885L409.444 202.047L409.944 202.032L410.455 218.194L409.955 218.21L410.465 234.372L410.965 234.357L411.475 250.519L410.976 250.535L411.486 266.698L411.986 266.682L412.496 282.844L411.996 282.86L412.507 299.023L413.006 299.007L413.517 315.169L413.017 315.185L413.527 331.348L414.027 331.332L414.537 347.494L414.038 347.51L414.548 363.673L415.048 363.657L415.558 379.819L415.058 379.835L415.569 395.998L416.068 395.982L416.579 412.144L416.079 412.16L416.589 428.323L417.089 428.307L417.599 444.47L417.1 444.485L417.61 460.648L418.11 460.632L418.62 476.795L418.12 476.81L418.631 492.973L419.13 492.957L419.641 509.12L419.141 509.135L419.377 516.599L411.752 515.217L411.662 515.709L395.195 512.725L395.284 512.233L378.817 509.25L378.728 509.742L362.261 506.758L362.35 506.266L345.883 503.282L345.794 503.774L329.327 500.79L329.416 500.298L321.182 498.807L321.138 498.798H321.093H313.226V499.298H297.491V498.798H281.757V499.298H266.023V498.798H250.288V499.298H234.554V498.798H218.82V499.298H203.085V498.798H187.351V499.298H171.617V498.798H155.882V499.298H140.148V498.798H124.414V499.298H108.679V498.798H92.945V499.298H77.2106V498.798H61.4763V499.298H45.7419V498.798H30.0076V499.298H14.2733V498.798H-1.46109V499.298H-17.1954V498.798H-32.9298V499.298H-48.6641V498.798H-64.3985V499.298H-80.1328V498.798H-87.5V491.497H-88V475.894H-87.5V460.291H-88V444.688H-87.5V429.085H-88V413.482H-87.5V397.879H-88V382.275H-87.5V366.672H-88V351.069H-87.5V335.466H-88V319.863H-87.5V304.26H-88V288.657H-87.5V273.054H-88V257.451H-87.5V241.848H-88V226.245H-87.5V210.642H-88V195.038H-87.5V179.435H-88V163.832H-87.5V148.229H-88V132.626H-87.5V117.023H-88V101.42H-87.5V85.8169H-88V70.2139H-87.5V54.6108H-88V39.0077H-87.5V23.4046H-88V7.80154H-87.5V0.5H-79.8073V0H-63.4217V0.5H-47.0363V0H-30.6508V0.5H-14.2652V0H2.12024V0.5H18.5057V0H34.8912V0.5H51.2767V0H67.6622V0.5H84.0477V0H100.433V0.5H116.819V0H133.204V0.5H149.59V0H165.975V0.5H182.361V0H198.746V0.5H215.132V0H231.517V0.5H247.903V0H264.288V0.5H280.674V0H297.059V0.5H313.445V0H329.83V0.5H346.216V0H362.601V0.5H378.987V0H395.372V0.5H403.08L403.32 8.09692L403.82 8.08114Z" stroke="#354F3B" stroke-dasharray="16 16"/>
<path d="M1258.33 8.08114L1258.84 24.2437L1258.34 24.2595L1258.85 40.422L1259.35 40.4062L1259.86 56.5688L1259.36 56.5845L1259.87 72.7471L1260.37 72.7313L1260.88 88.8939L1260.38 88.9096L1260.89 105.072L1261.39 105.056L1261.9 121.219L1261.4 121.235L1261.91 137.397L1262.41 137.381L1262.92 153.544L1262.42 153.56L1262.93 169.722L1263.43 169.707L1263.94 185.869L1263.44 185.885L1263.95 202.047L1264.45 202.032L1264.96 218.194L1264.46 218.21L1264.97 234.372L1265.47 234.357L1265.98 250.519L1265.48 250.535L1265.99 266.698L1266.49 266.682L1267 282.844L1266.5 282.86L1267.01 299.023L1267.51 299.007L1268.02 315.169L1267.52 315.185L1268.03 331.348L1268.53 331.332L1269.04 347.494L1268.54 347.51L1269.05 363.673L1269.55 363.657L1270.06 379.819L1269.56 379.835L1270.07 395.998L1270.57 395.982L1271.08 412.144L1270.58 412.16L1271.1 428.323L1271.59 428.307L1272.11 444.47L1271.61 444.485L1272.12 460.648L1272.62 460.632L1273.13 476.795L1272.63 476.81L1273.14 492.973L1273.64 492.957L1274.15 509.12L1273.65 509.135L1273.88 516.599L1266.26 515.217L1266.17 515.709L1249.7 512.725L1249.79 512.233L1233.32 509.25L1233.23 509.742L1216.77 506.758L1216.86 506.266L1200.39 503.282L1200.3 503.774L1183.83 500.79L1183.92 500.298L1175.69 498.807L1175.64 498.798H1175.6H1167.73V499.298H1152V498.798H1136.26V499.298H1120.53V498.798H1104.79V499.298H1089.06V498.798H1073.33V499.298H1057.59V498.798H1041.86V499.298H1026.12V498.798H1010.39V499.298H994.654V498.798H978.92V499.298H963.185V498.798H947.451V499.298H931.716V498.798H915.982V499.298H900.248V498.798H884.513V499.298H868.779V498.798H853.045V499.298H837.31V498.798H821.576V499.298H805.842V498.798H790.107V499.298H774.373V498.798H767.006V491.497H766.506V475.894H767.006V460.291H766.506V444.688H767.006V429.085H766.506V413.482H767.006V397.879H766.506V382.275H767.006V366.672H766.506V351.069H767.006V335.466H766.506V319.863H767.006V304.26H766.506V288.657H767.006V273.054H766.506V257.451H767.006V241.848H766.506V226.245H767.006V210.642H766.506V195.038H767.006V179.435H766.506V163.832H767.006V148.229H766.506V132.626H767.006V117.023H766.506V101.42H767.006V85.8169H766.506V70.2139H767.006V54.6108H766.506V39.0077H767.006V23.4046H766.506V7.80154H767.006V0.5H774.699V0H791.084V0.5H807.47V0H823.855V0.5H840.241V0H856.626V0.5H873.012V0H889.397V0.5H905.783V0H922.168V0.5H938.554V0H954.939V0.5H971.325V0H987.71V0.5H1004.1V0H1020.48V0.5H1036.87V0H1053.25V0.5H1069.64V0H1086.02V0.5H1102.41V0H1118.79V0.5H1135.18V0H1151.57V0.5H1167.95V0H1184.34V0.5H1200.72V0H1217.11V0.5H1233.49V0H1249.88V0.5H1257.59L1257.83 8.09692L1258.33 8.08114Z" stroke="#354F3B" stroke-dasharray="16 16"/>
<path d="M656.605 146.88L657.115 163.043L656.615 163.058L657.126 179.221L657.625 179.205L658.136 195.368L657.636 195.383L658.146 211.546L658.646 211.53L659.156 227.693L658.657 227.709L659.167 243.871L659.667 243.855L660.177 260.018L659.677 260.034L660.188 276.196L660.688 276.18L661.198 292.343L660.698 292.359L661.208 308.521L661.708 308.505L662.219 324.668L661.719 324.684L662.229 340.846L662.729 340.831L663.239 356.993L662.74 357.009L663.25 373.171L663.75 373.156L664.26 389.318L663.76 389.334L664.271 405.496L664.77 405.481L665.281 421.643L664.781 421.659L665.291 437.822L665.791 437.806L666.301 453.968L665.802 453.984L666.312 470.147L666.812 470.131L667.322 486.293L666.822 486.309L667.333 502.472L667.832 502.456L668.343 518.618L667.843 518.634L668.353 534.797L668.853 534.781L669.363 550.943L668.864 550.959L669.374 567.122L669.874 567.106L670.384 583.268L669.884 583.284L670.395 599.447L670.894 599.431L671.405 615.594L670.905 615.609L671.415 631.772L671.915 631.756L672.425 647.919L671.926 647.934L672.161 655.398L664.536 654.016L664.447 654.508L647.98 651.524L648.069 651.032L631.602 648.049L631.513 648.541L615.046 645.557L615.135 645.065L598.668 642.081L598.578 642.573L582.111 639.589L582.2 639.097L573.967 637.605L573.923 637.597H573.878H566.01V638.097H550.276V637.597H534.542V638.097H518.807V637.597H503.073V638.097H487.339V637.597H471.604V638.097H455.87V637.597H440.136V638.097H424.401V637.597H408.667V638.097H392.933V637.597H377.198V638.097H361.464V637.597H345.73V638.097H329.995V637.597H314.261V638.097H298.527V637.597H282.792V638.097H267.058V637.597H251.324V638.097H235.589V637.597H219.855V638.097H204.121V637.597H188.386V638.097H172.652V637.597H165.285V630.296H164.785V614.693H165.285V599.09H164.785V583.487H165.285V567.884H164.785V552.281H165.285V536.678H164.785V521.074H165.285V505.471H164.785V489.868H165.285V474.265H164.785V458.662H165.285V443.059H164.785V427.456H165.285V411.853H164.785V396.25H165.285V380.647H164.785V365.044H165.285V349.44H164.785V333.837H165.285V318.234H164.785V302.631H165.285V287.028H164.785V271.425H165.285V255.822H164.785V240.219H165.285V224.616H164.785V209.013H165.285V193.41H164.785V177.807H165.285V162.204H164.785V146.6H165.285V139.299H172.977V138.799H189.363V139.299H205.748V138.799H222.134V139.299H238.519V138.799H254.905V139.299H271.29V138.799H287.676V139.299H304.061V138.799H320.447V139.299H336.832V138.799H353.218V139.299H369.603V138.799H385.989V139.299H402.374V138.799H418.76V139.299H435.145V138.799H451.531V139.299H467.916V138.799H484.302V139.299H500.687V138.799H517.073V139.299H533.458V138.799H549.844V139.299H566.229V138.799H582.615V139.299H599V138.799H615.386V139.299H631.771V138.799H648.157V139.299H655.865L656.105 146.896L656.605 146.88Z" stroke="#354F3B" stroke-dasharray="16 16"/>
<path d="M1511.11 146.88L1511.62 163.043L1511.12 163.058L1511.63 179.221L1512.13 179.205L1512.64 195.368L1512.14 195.383L1512.65 211.546L1513.15 211.53L1513.66 227.693L1513.16 227.709L1513.67 243.871L1514.17 243.855L1514.68 260.018L1514.18 260.034L1514.69 276.196L1515.19 276.18L1515.7 292.343L1515.2 292.359L1515.71 308.521L1516.21 308.505L1516.72 324.668L1516.22 324.684L1516.74 340.846L1517.24 340.831L1517.75 356.993L1517.25 357.009L1517.76 373.171L1518.26 373.156L1518.77 389.318L1518.27 389.334L1518.78 405.496L1519.28 405.481L1519.79 421.643L1519.29 421.659L1519.8 437.822L1520.3 437.806L1520.81 453.968L1520.31 453.984L1520.82 470.147L1521.32 470.131L1521.83 486.293L1521.33 486.309L1521.84 502.472L1522.34 502.456L1522.85 518.618L1522.35 518.634L1522.86 534.797L1523.36 534.781L1523.87 550.943L1523.37 550.959L1523.88 567.122L1524.38 567.106L1524.89 583.268L1524.39 583.284L1524.9 599.447L1525.4 599.431L1525.91 615.594L1525.41 615.609L1525.92 631.772L1526.42 631.756L1526.93 647.919L1526.43 647.934L1526.67 655.398L1519.04 654.016L1518.95 654.508L1502.49 651.524L1502.58 651.032L1486.11 648.049L1486.02 648.541L1469.55 645.557L1469.64 645.065L1453.17 642.081L1453.08 642.573L1436.62 639.589L1436.71 639.097L1428.47 637.605L1428.43 637.597H1428.38H1420.52V638.097H1404.78V637.597H1389.05V638.097H1373.31V637.597H1357.58V638.097H1341.84V637.597H1326.11V638.097H1310.38V637.597H1294.64V638.097H1278.91V637.597H1263.17V638.097H1247.44V637.597H1231.7V638.097H1215.97V637.597H1200.24V638.097H1184.5V637.597H1168.77V638.097H1153.03V637.597H1137.3V638.097H1121.56V637.597H1105.83V638.097H1090.1V637.597H1074.36V638.097H1058.63V637.597H1042.89V638.097H1027.16V637.597H1019.79V630.296H1019.29V614.693H1019.79V599.09H1019.29V583.487H1019.79V567.884H1019.29V552.281H1019.79V536.678H1019.29V521.074H1019.79V505.471H1019.29V489.868H1019.79V474.265H1019.29V458.662H1019.79V443.059H1019.29V427.456H1019.79V411.853H1019.29V396.25H1019.79V380.647H1019.29V365.044H1019.79V349.44H1019.29V333.837H1019.79V318.234H1019.29V302.631H1019.79V287.028H1019.29V271.425H1019.79V255.822H1019.29V240.219H1019.79V224.616H1019.29V209.013H1019.79V193.41H1019.29V177.807H1019.79V162.204H1019.29V146.6H1019.79V139.299H1027.48V138.799H1043.87V139.299H1060.25V138.799H1076.64V139.299H1093.03V138.799H1109.41V139.299H1125.8V138.799H1142.18V139.299H1158.57V138.799H1174.95V139.299H1191.34V138.799H1207.72V139.299H1224.11V138.799H1240.5V139.299H1256.88V138.799H1273.27V139.299H1289.65V138.799H1306.04V139.299H1322.42V138.799H1338.81V139.299H1355.19V138.799H1371.58V139.299H1387.96V138.799H1404.35V139.299H1420.74V138.799H1437.12V139.299H1453.51V138.799H1469.89V139.299H1486.28V138.799H1502.66V139.299H1510.37L1510.61 146.896L1511.11 146.88Z" stroke="#354F3B" stroke-dasharray="16 16"/>
</svg>
