<svg width="1440" height="221" viewBox="0 0 1440 221" fill="none" xmlns="http://www.w3.org/2000/svg">
<path d="M1423.79 -254.81L1424.8 -230.431L1424.3 -230.41L1425.31 -206.031L1425.81 -206.052L1426.82 -181.672L1426.32 -181.651L1427.32 -157.272L1427.82 -157.293L1428.83 -132.913L1428.33 -132.893L1429.34 -108.513L1429.84 -108.534L1430.85 -84.1548L1430.35 -84.1341L1431.36 -59.7547L1431.86 -59.7754L1432.87 -35.3961L1432.37 -35.3754L1433.38 -10.9961L1433.88 -11.0167L1434.88 13.3627L1434.39 13.3833L1435.39 37.7627L1435.89 37.742L1436.9 62.1214L1436.4 62.1421L1437.41 86.5214L1437.91 86.5007L1438.92 110.88L1438.42 110.901L1439.43 135.28L1439.93 135.259L1440.94 159.639L1440.44 159.66L1441.45 184.039L1441.94 184.018L1442.95 208.398L1442.45 208.418L1442.93 219.984L1433.38 218.251L1433.29 218.743L1412.95 215.054L1413.04 214.562L1392.7 210.873L1392.61 211.365L1372.27 207.676L1372.36 207.184L1352.02 203.495L1351.93 203.987L1331.59 200.298L1331.68 199.806L1321.51 197.961L1321.46 197.953H1321.42H1309.58V198.453H1285.91V197.953H1262.25V198.453H1238.58V197.953H1214.91V198.453H1191.24V197.953H1167.57V198.453H1143.91V197.953H1120.24V198.453H1096.57V197.953H1072.9V198.453H1049.23V197.953H1025.56V198.453H1001.9V197.953H978.228V198.453H954.56V197.953H930.892V198.453H907.224V197.953H883.556V198.453H859.888V197.953H836.219V198.453H812.551V197.953H788.883V198.453H765.215V197.953H741.547V198.453H717.879V197.953H694.21V198.453H670.542V197.953H646.874V198.453H623.206V197.953H599.538V198.453H575.87V197.953H552.202V198.453H528.533V197.953H504.865V198.453H481.197V197.953H457.529V198.453H433.861V197.953H410.193V198.453H386.524V197.953H362.856V198.453H339.188V197.953H315.52V198.453H291.852V197.953H268.184V198.453H244.516V197.953H220.847V198.453H197.179V197.953H173.511V198.453H149.843V197.953H126.175V198.453H102.507V197.953H78.8385V198.453H55.1704V197.953H31.5022V198.453H7.83407V197.953H-3.5V186.817H-4V163.544H-3.5V140.271H-4V116.999H-3.5V93.726H-4V70.4534H-3.5V47.1808H-4V23.9081H-3.5V0.635468H-4V-22.6372H-3.5V-45.9098H-4V-69.1825H-3.5V-92.4551H-4V-115.728H-3.5V-139H-4V-162.273H-3.5V-185.546H-4V-208.818H-3.5V-232.091H-4V-255.364H-3.5V-266.5H7.89438V-267H31.6825V-266.5H55.4706V-267H79.2587V-266.5H103.047V-267H126.835V-266.5H150.623V-267H174.411V-266.5H198.199V-267H221.987V-266.5H245.775V-267H269.563V-266.5H293.351V-267H317.14V-266.5H340.928V-267H364.716V-266.5H388.504V-267H412.292V-266.5H436.08V-267H459.868V-266.5H483.656V-267H507.444V-266.5H531.232V-267H555.02V-266.5H578.809V-267H602.597V-266.5H626.385V-267H650.173V-266.5H673.961V-267H697.749V-266.5H721.537V-267H745.325V-266.5H769.113V-267H792.901V-266.5H816.689V-267H840.477V-266.5H864.266V-267H888.054V-266.5H911.842V-267H935.63V-266.5H959.418V-267H983.206V-266.5H1006.99V-267H1030.78V-266.5H1054.57V-267H1078.36V-266.5H1102.15V-267H1125.93V-266.5H1149.72V-267H1173.51V-266.5H1197.3V-267H1221.09V-266.5H1244.88V-267H1268.66V-266.5H1292.45V-267H1316.24V-266.5H1340.03V-267H1363.82V-266.5H1387.6V-267H1411.39V-266.5H1422.81L1423.29 -254.79L1423.79 -254.81Z" stroke="#354F3B" stroke-dasharray="24 24"/>
</svg>
